<?xml version="1.0" standalone="no"?>
<!DOCTYPE svg PUBLIC "-//W3C//DTD SVG 1.1//EN" "http://www.w3.org/Graphics/SVG/1.1/DTD/svg11.dtd" >
<!--
2013-9-30: Created.
-->
<svg>
<metadata>
Created by iconfont
</metadata>
<defs>

<font id="iconfont" horiz-adv-x="1024" >
  <font-face
    font-family="iconfont"
    font-weight="500"
    font-stretch="normal"
    units-per-em="1024"
    ascent="896"
    descent="-128"
  />
    <missing-glyph />
    
    <glyph glyph-name="open-bookmarks" unicode="&#58960;" d="M238.933 662.844h568.889c28.035 0 45.511-17.476 45.511-45.511v-728.178c0-28.058-22.642-45.375-50.699-45.375l-278.3 194.128-275.137-194.128c-28.058 0-55.774 17.317-55.774 45.375v728.178c0 28.035 17.476 45.511 45.511 45.511z"  horiz-adv-x="1024" />

    
    <glyph glyph-name="31" unicode="&#59058;" d="M726.277689 668.444444l-91.886933-138.899911L539.420444 668.444444 726.277689 668.444444zM619.793067 497.777778 415.9488 497.777778l101.910756-387.629511L619.793067 497.777778zM422.752711 520.533333l190.225067 0-95.118222 139.127467L422.752711 520.533333zM401.351111 529.544533 496.310044 668.444444 309.464178 668.444444 401.351111 529.544533zM496.264533 102.843733 392.430933 497.777778 168.721067 497.777778 496.264533 102.843733zM169.039644 520.533333l210.989511 0-91.909689 138.934044L169.039644 520.533333zM747.463111 659.217067 655.712711 520.533333l210.625422 0L747.463111 659.217067zM643.310933 497.777778l-103.844978-394.899911L866.656711 497.777778 643.310933 497.777778z"  horiz-adv-x="1024" />

    
    <glyph glyph-name="rentou2" unicode="&#58929;" d="M685.841815 752.317577c8.29799-33.432437 9.137101-36.213783 8.343015-70.529333-0.311085-13.255908-7.90504-74.492598-5.828752-93.244684 1.680269-15.46318 5.51869-16.699334 11.657504-29.490661 10.638291-22.197558 7.059789-52.81488 2.958378-75.209936-2.211365-12.230556-6.930853-29.700439-14.126742-39.71349-7.90504-10.994402-23.666002-11.091616-30.731932-23.940249-10.063193-18.499329-4.367471-44.49233-10.727319-64.524572-7.197936-22.661116-25.562189-24.248264-26.976398-53.953819 9.007141-1.223874 18.013259-2.560312 26.976398-3.838422 9.054213-19.163455 25.51921-57.748239 42.429345-69.362764 14.127765-3.859911 28.255531-7.701402 42.382273-11.564383 49.539276-20.286022 104.548124-44.593638 154.173358-65.497737 45.164642-19.064194 99.292424-25.838482 115.626437-73.210395 0-32.16763 3.003404-108.190071 2.209318-150.321634L19.7933-72.084503c-0.794086 42.132586 2.207271 118.155027 2.207271 150.321634 16.33606 47.371914 70.463842 54.146201 115.674533 73.210395 49.623187 20.904099 104.634082 45.211714 154.170289 65.497737 14.129812 3.861958 28.256554 7.703449 42.386366 11.564383 16.821107 11.615549 33.376155 50.200332 42.382273 69.362764l20.087501 4.875031c-4.590552 25.322735-20.266579 27.331485-26.798343 45.254693-2.561335 26.978445-5.120624 53.952796-7.682983 80.917938 0.088004-1.280156-18.456351 3.38919-20.927635 4.879124-26.137287 16.445554-26.710338 83.023902-29.227672 110.715591-1.147126 12.694113 16.513092 23.068392 11.612479 46.291302-28.698622 135.938042 12.406564 199.537546 77.396741 220.596164 45.074591 18.289552 129.225153 52.151777 207.769021 3.852748l19.556405-18.024515 31.479969-5.453199C675.685501 782.637116 685.841815 752.317577 685.841815 752.317577L685.841815 752.317577z"  horiz-adv-x="1024" />

    
    <glyph glyph-name="xin" unicode="&#58945;" d="M700.856275 740.457458c-74.768891 0-144.295384-72.696696-190.046381-127.260405C465.073224 667.773042 395.563104 740.457458 320.754305 740.457458c-134.789892 0-244.443291-105.780185-244.443291-235.799424 0-77.56968 39.277562-131.98808 70.844511-175.712931 91.752704-126.998439 322.464249-285.038872 332.234777-291.701618 9.410324-6.414083 20.424168-9.629311 31.401174-9.629311 11.005658 0 21.998013 3.215228 31.397081 9.629311 9.782807 6.662747 240.514819 164.703179 332.23887 291.701618 31.586392 43.723827 70.873164 98.143251 70.873164 175.712931C945.299567 634.678296 835.645145 740.457458 700.856275 740.457458L700.856275 740.457458zM700.856275 740.457458"  horiz-adv-x="1024" />

    
    <glyph glyph-name="zitifont5" unicode="&#59242;" d="M116.61312 174.04928l3.40992 17.59232 5.38624 0.27648c17.77664 0.95232 28.80512 3.1744 33.06496 6.66624 4.23936 3.50208 15.45216 19.43552 33.60768 47.81056l219.3408 354.64192 20.72576 0 67.19488-349.5424c4.9152-25.72288 9.8816-41.89184 14.88896-48.50688 5.0176-6.61504 14.8992-10.31168 29.65504-11.06944l7.07584-0.27648-3.67616-17.59232L389.81632 174.04928l3.69664 17.59232 8.77568 0c27.4432 0 41.14432 4.53632 41.14432 13.6192 0 9.64608-1.59744 23.18336-4.8128 40.59136l-10.8544 57.57952L252.84608 303.43168l-35.52256-56.46336c-14.56128-22.8864-21.84192-37.65248-21.84192-44.25728 0-7.38304 11.64288-11.06944 34.89792-11.06944l7.08608 0-3.67616-17.59232L116.61312 174.04928zM264.13056 328.11008l158.43328 0-36.56704 197.46816L264.13056 328.11008zM790.4256 174.04928l25.89696 129.92512c-23.51104-41.50272-49.7152-74.7008-78.62272-99.62496-28.8768-24.92416-55.78752-37.376-80.72192-37.376-20.21376 0-35.35872 5.95968-45.45536 17.87904-10.10688 11.9296-15.14496 29.72672-15.14496 53.39136 0 61.52192 21.6064 118.74304 64.84992 171.66336 43.25376 52.91008 89.99936 79.37024 140.21632 79.37024 5.29408 0 12.0832-0.60416 20.38784-1.78176 8.32512-1.1776 18.2272-2.95936 29.75744-5.31456l55.78752 0-46.19264-234.5984c-3.20512-15.53408-4.82304-29.05088-4.82304-40.6016 0-6.05184 1.80224-9.74848 5.39648-11.06944 3.584-1.3312 15.40096-2.65216 35.46112-3.98336l5.09952-0.27648-3.39968-17.59232L790.4256 174.05952zM824.76032 346.24512l19.63008 98.4576c-10.92608 5.77536-22.12864 10.05568-33.61792 12.84096-11.49952 2.78528-23.35744 4.18816-35.60448 4.18816-28.2624 0-51.12832-12.76928-68.63872-38.30784-13.93664-20.41856-25.89696-47.65696-35.8912-81.70496-9.99424-34.048-14.96064-64.68608-14.96064-91.93472 0-13.6192 2.2528-23.82848 6.78912-30.63808 4.51584-6.8096 11.30496-10.20928 20.3776-10.20928C718.90944 208.9472 766.208 254.72 824.76032 346.24512z"  horiz-adv-x="1024" />

    
    <glyph glyph-name="weixin" unicode="&#58973;" d="M1024 236.8c0 147.2-147.2 262.4-307.2 262.4-172.8 0-307.2-115.2-307.2-262.4 0-147.2 134.4-262.4 307.2-262.4 38.4 0 70.4 6.4 108.8 19.2l102.4-51.2L896 25.6C972.8 83.2 1024 153.6 1024 236.8zM614.4 281.6c-19.2 0-38.4 19.2-38.4 38.4 0 19.2 19.2 38.4 38.4 38.4 25.6 0 44.8-19.2 44.8-38.4C659.2 300.8 646.4 281.6 614.4 281.6zM812.8 281.6c-19.2 0-38.4 19.2-38.4 38.4 0 19.2 19.2 38.4 38.4 38.4 25.6 0 44.8-19.2 44.8-38.4C864 300.8 844.8 281.6 812.8 281.6zM364.8 768C166.4 768 0 633.6 0 460.8c0-102.4 51.2-179.2 147.2-243.2l-38.4-108.8 128 64c44.8-6.4 83.2-19.2 128-19.2 12.8 0 25.6 0 32 0C390.4 179.2 384 204.8 384 230.4c0 160 134.4 288 307.2 288 12.8 0 25.6 0 32 0C697.6 659.2 537.6 768 364.8 768zM243.2 524.8C217.6 524.8 192 544 192 569.6c0 25.6 25.6 44.8 57.6 44.8s44.8-19.2 44.8-44.8C288 544 268.8 524.8 243.2 524.8zM499.2 524.8c-25.6 0-57.6 19.2-57.6 44.8 0 25.6 25.6 44.8 57.6 44.8 25.6 0 44.8-19.2 44.8-44.8C544 544 524.8 524.8 499.2 524.8z"  horiz-adv-x="1024" />

    
    <glyph glyph-name="iconfonticonfonticondingbudaohangshezhizhengchang" unicode="&#58882;" d="M890.594799 347.651879c1.115798 11.544566 1.803636 23.140848 1.803636 34.898747s-0.686545 23.358061-1.803636 34.898747l88.494545 69.959111c19.171556 15.676768 24.096323 42.687354 11.808323 64.025859l-94.368323 165.126465c-11.969939 20.97002-37.60097 31.035475-61.858909 21.712162l-103.691636-42.157253c-19.009939 13.667556-38.923636 25.368566-59.419152 34.954343l-15.727192 112.060768C652.124335 867.383596 630.837547 885.656566 606.367567 885.656566l-188.793535 0c-24.78804 0-45.600323-17.848889-49.520485-42.894222l-15.671596-111.692283c-20.549818-9.636202-40.459636-21.342384-59.474747-34.954343L188.953102 738.434586c-22.403879 8.68202-49.520485-0.903758-61.485253-21.873778l-94.373495-165.070869c-12.288-21.500121-7.358061-48.510707 12.126384-64.343919l88.126061-69.696646c-1.115798-11.490263-1.802343-23.140848-1.802343-34.898747s0.686545-23.405899 1.802343-34.898747l-88.600566-69.960404c-19.009939-15.725899-23.939879-42.680889-11.651879-63.96897L127.518274 48.49002c12.020364-20.919596 38.238384-30.979879 61.803313-21.606141l103.691636 42.154667c19.065535-13.66497 38.980525-25.368566 59.419152-34.903919l15.727192-112.217212c3.869737-24.626424 24.68202-42.468848 49.414465-42.468848l188.741818 0c24.464808 0 45.702465 18.267798 49.570909 42.892929l15.671596 111.744c20.495515 9.634909 40.409212 21.288081 59.419152 34.953051l103.959273-42.368c5.823354-2.278141 11.914343-3.388768 18.166949-3.388768 17.793293 0 34.419071 9.636202 43.424323 25.262545l94.211879 165.015273c12.338424 21.288081 7.570101 48.297374-12.07596 64.554667L890.594799 347.651879 890.594799 347.651879zM512.049668 235.858747c-79.965091 0-145.051152 65.772606-145.051152 146.691879 0 80.924444 65.086061 146.697051 145.051152 146.697051 79.970263 0 144.999434-65.828202 144.999434-146.697051C657.049102 301.686949 591.963042 235.858747 512.049668 235.858747L512.049668 235.858747zM512.049668 235.858747"  horiz-adv-x="1024" />

    
    <glyph glyph-name="xihuan" unicode="&#58907;" d="M731.43552 713.15072c49.16352 0 95.36512-19.16032 130.14272-53.9136 71.74912-71.744 71.74912-188.512 0-260.29056l-42.69312-42.69056L669.40928 206.77504 519.96032 57.3568c-0.17024-0.17024-0.57472-0.576-2.09792-0.576l-0.08704 0-5.14944 0.37376-4.71936-0.4032c-1.26464 0-1.69856 0.4352-1.87008 0.60544L356.38528 206.77504 163.9872 398.97472C129.1776 433.728 109.9904 479.92832 109.9904 529.09312s19.1872 95.36512 53.96608 130.11712c34.81088 34.77888 81.12512 53.94048 130.37696 53.94048s95.54048-19.16032 130.34624-53.94048l42.78144-42.72 4.91648-4.92032 40.62208-40.50304 40.6208 40.50304 5.00352 4.97792 42.63296 42.68928C636.06528 693.98912 682.26688 713.15072 731.43552 713.15072M731.43552 770.68544c-61.7984 0-123.648-23.58912-170.82752-70.76864l-42.66368-42.69056-0.0256 0-4.89088-4.92032-4.92032 4.92032-0.03072 0-42.72 42.69056c-47.23712 47.17952-109.11744 70.76864-170.99392 70.76864-61.91232 0-123.81952-23.58912-171.02464-70.76864-94.47936-94.3296-94.47936-247.31648 0-341.64608L315.7376 166.06976l0.03072 0 149.62176-149.41952c11.7632-11.7376 27.12704-17.43488 42.54848-17.43488 1.72544 0 3.42016 0.08704 5.14944 0.23296 1.69472-0.14464 3.424-0.23296 5.11872-0.23296 15.36256 0 30.72256 5.69728 42.46144 17.43488l149.44896 149.41952 0.20224 0.20224 149.27744 149.2736 42.69056 42.69312c94.33344 94.38592 94.33344 247.31648 0 341.64992C855.0784 747.09504 793.2544 770.68544 731.43552 770.68544L731.43552 770.68544 731.43552 770.68544zM731.43552 770.68544"  horiz-adv-x="1024" />

    
    <glyph glyph-name="pinglun3" unicode="&#58884;" d="M338.506112-125.672914C333.695245-125.672914 328.849823-124.644292 324.304749-122.553823 312.260302-117.012022 304.528358-104.967575 304.528358-91.69516L304.52836 53.141206C304.52836 71.124815 289.895081 85.758094 271.878246 85.758094L105.605608 85.758094C50.126464 85.758094 4.99999 130.884568 4.99999 186.330488L4.99999 793.084615C4.99999 848.547811 50.126464 893.674285 105.605608 893.674285L1064.711968 893.674285C1120.157887 893.674285 1165.284361 848.547811 1165.284361 793.084615L1165.284361 186.330488C1165.284361 130.884568 1120.157887 85.758094 1064.711968 85.758094L609.796545 85.758094C601.999484 85.758094 594.433663 82.971246 588.4945 77.861361L360.604211-117.477161C354.332805-122.886066 346.469295-125.672914 338.506112-125.672914L338.506112-125.672914ZM105.605608 825.71878C87.588774 825.71878 72.955495 811.085501 72.955495 793.084615L72.955495 186.330488C72.955495 168.346879 87.588774 153.7136 105.605608 153.7136L271.876918 153.7136C327.356061 153.7136 372.482536 108.587126 372.482536 53.141206L372.482536-17.800493 544.32887 129.491811C562.611498 145.120486 585.839219 153.713601 609.795217 153.713601L1064.710639 153.713601C1082.694248 153.713601 1097.327528 168.34688 1097.327528 186.33049L1097.327528 793.084616C1097.327528 811.085502 1082.694248 825.718781 1064.710639 825.718781L105.605608 825.71878 105.605608 825.71878Z"  horiz-adv-x="1280" />

    
    <glyph glyph-name="shouji" unicode="&#58897;" d="M705.924248 784.643499c17.693089 0 31.987505-14.294416 31.987505-31.987505l0-706.723936c0-17.693089-9.096447-31.987505-31.687622-31.987505L316.076533 13.944553c-12.695041 0-26.989457 14.294416-26.989457 31.987505l0 706.723936c0 17.693089 14.294416 31.987505 31.987505 31.987505M703.925029 896 320.074971 896c-52.979305 0-95.962515-42.98321-95.962515-95.962515l0-831.675127c0-52.979305 42.98321-95.962515 95.962515-95.962515L703.925029-127.600156c52.979305 0 95.962515 43.582975 95.962515 96.56228L799.887544 799.637642c0 52.979305-42.583366 96.362358-95.662632 96.362358C704.224912 896 703.925029 896 703.925029 896zM554.98321-59.526747c0-19.092542-15.393987-34.486529-34.486529-34.486529S486.010152-78.619289 486.010152-59.526747s15.393987 34.486529 34.486529 34.486529C539.589223-25.040219 554.98321-40.434205 554.98321-59.526747z"  horiz-adv-x="1024" />

    
    <glyph glyph-name="pinglun2" unicode="&#59012;" d="M337.36192-18.688c-3.5584 0-7.13728 0.75776-10.496 2.304-8.89856 4.096-14.61248 12.99968-14.61248 22.8096L312.25344 113.4592c0 13.29152-10.81344 24.09984-24.12544 24.09984l-122.88 0c-41.00096 0-74.35264 33.3568-74.35264 74.33216L90.89536 660.3008c0 40.9856 33.35168 74.33728 74.35264 74.33728l708.80768 0c40.97536 0 74.32704-33.35168 74.32704-74.33728l0-448.41472c0-40.97536-33.35168-74.33216-74.32704-74.33216l-336.19968 0c-5.76 0-11.35104-2.048-15.73888-5.8368l-168.41728-144.3584C349.06112-16.62464 343.24992-18.688 337.36192-18.688z"  horiz-adv-x="1024" />

    
    <glyph glyph-name="qq" unicode="&#58909;" d="M909.937778 231.196444c-18.432 110.876444-95.829333 183.523556-95.829333 183.523556 11.064889 100.664889-29.496889 118.528-29.496889 118.528C776.106667 844.686222 517.432889 839.224889 512 839.082667c-5.432889 0.142222-264.135111 5.603556-272.611556-305.863111 0 0-40.561778-17.863111-29.496889-118.528 0 0-77.397333-72.647111-95.829333-183.523556 0 0-9.841778-187.335111 88.462222-22.954667 0 0 22.129778-62.435556 62.663111-118.528 0 0-72.504889-25.486222-66.332444-91.761778 0 0-2.474667-73.898667 154.823111-68.835556 0 0 110.563556 8.903111 143.758222 57.344l29.240889 0c33.166222-48.440889 143.758222-57.344 143.758222-57.344 157.240889-5.091556 154.794667 68.835556 154.794667 68.835556 6.115556 66.247111-66.332444 91.761778-66.332444 91.761778 40.533333 56.092444 62.663111 118.528 62.663111 118.528C919.751111 43.832889 909.937778 231.196444 909.937778 231.196444L909.937778 231.196444zM909.937778 231.196444"  horiz-adv-x="1024" />

    
    <glyph glyph-name="shu" unicode="&#58898;" d="M26.04 65.382c-13.07 0-23.7 10.636-23.7 23.706V745.881c0 9.914 6.25 18.86 15.554 22.263 17.903 6.55 113.952 39.221 246.816 39.221 85.04 0 168.751-13.165 248.808-39.128a23.647 23.647 0 0 0 16.39-22.558V94.13c0-13.075-10.626-23.712-23.688-23.713-1.754 0-3.514 0.196-5.23 0.583-29.358 6.623-134.342 28.231-252.548 28.231-83.833 0-155.895-10.894-214.184-32.38a23.72 23.72 0 0 0-8.219-1.469z m12.115 671.903V106.1c59.11 19.214 129.748 28.947 210.285 28.947 106.759 0 203.04-17.085 245.652-25.918V736.83c-73.942 23.043-151.062 34.718-229.383 34.718-113.2 0-197.684-24.583-226.554-34.264zM519.085 65.382c-13.068 0-23.7 10.636-23.7 23.706V745.881c0 9.915 6.252 18.863 15.557 22.263 17.902 6.548 113.95 39.221 246.813 39.221 85.041 0 168.75-13.165 248.808-39.128a23.647 23.647 0 0 0 16.392-22.558V94.13c0-13.075-10.627-23.712-23.688-23.713-1.754 0-3.514 0.196-5.23 0.584-29.36 6.622-134.344 28.23-252.55 28.23-83.834 0-155.896-10.894-214.184-32.38a23.684 23.684 0 0 0-8.218-1.469z m12.116 671.903V106.1c59.113 19.215 129.748 28.947 210.286 28.947 106.757 0 203.038-17.085 245.652-25.918V736.83c-73.944 23.043-151.062 34.719-229.383 34.719-113.201 0-197.685-24.584-226.555-34.265zM115.553 595.843l-0.01 0.034c-2.607 9.897 3.591 19.956 13.603 22.085 18.149 3.858 48.492 9.46 85.294 12.96 71.81 6.828 134.898 2.804 187.886-11.956 9.946-2.77 15.548-13.291 12.214-23.062-3.052-8.948-12.547-14.028-21.656-11.497-97.597 27.13-213.787 7.429-256.3-1.525-9.347-1.968-18.598 3.723-21.031 12.96zM115.553 449.723l-0.01 0.034c-2.607 9.897 3.591 19.956 13.603 22.085 18.149 3.859 48.492 9.46 85.294 12.96 71.81 6.828 134.898 2.804 187.886-11.955 9.946-2.77 15.548-13.292 12.214-23.063-3.052-8.948-12.547-14.028-21.656-11.497-97.597 27.13-213.787 7.429-256.3-1.525-9.347-1.97-18.598 3.723-21.031 12.96zM115.553 314.654l-0.01 0.033c-2.607 9.898 3.591 19.957 13.603 22.085 18.149 3.86 48.492 9.46 85.294 12.96 71.81 6.83 134.898 2.804 187.886-11.955 9.946-2.77 15.548-13.291 12.214-23.062-3.052-8.948-12.547-14.028-21.656-11.497-97.597 27.129-213.787 7.428-256.3-1.526-9.347-1.968-18.598 3.724-21.031 12.962zM609.497 595.843l-0.01 0.034c-2.607 9.897 3.591 19.956 13.603 22.085 18.148 3.858 48.492 9.46 85.295 12.96 71.81 6.828 134.898 2.804 187.886-11.956 9.945-2.77 15.548-13.291 12.214-23.062-3.052-8.948-12.548-14.028-21.656-11.497-97.597 27.13-213.787 7.429-256.3-1.525-9.348-1.968-18.6 3.723-21.032 12.96zM609.497 449.723l-0.01 0.034c-2.607 9.897 3.591 19.956 13.603 22.085 18.148 3.859 48.492 9.46 85.295 12.96 71.81 6.828 134.898 2.804 187.886-11.955 9.945-2.77 15.548-13.292 12.214-23.063-3.052-8.948-12.548-14.028-21.656-11.497-97.597 27.13-213.787 7.429-256.3-1.525-9.348-1.97-18.6 3.723-21.032 12.96zM609.497 314.654l-0.01 0.033c-2.607 9.898 3.591 19.957 13.603 22.085 18.148 3.86 48.492 9.46 85.295 12.96 71.81 6.83 134.898 2.804 187.886-11.955 9.945-2.77 15.548-13.291 12.214-23.062-3.052-8.948-12.548-14.028-21.656-11.497-97.597 27.129-213.787 7.428-256.3-1.526-9.348-1.968-18.6 3.724-21.032 12.962z"  horiz-adv-x="1024" />

    
    <glyph glyph-name="xiaoxi" unicode="&#58919;" d="M946.7 17.633H77.3c-18.9 0-31.5 12.6-31.5 31.5v56.7c0 12.6 6.3 18.9 12.6 25.2l113.4 94.5v277.2c0 157.5 107.1 289.8 252 327.6 0 37.8 31.5 63 69.3 63h37.8c37.8 0 69.3-31.5 69.3-63 151.2-37.8 252-170.1 252-327.6v-277.2l113.4-94.5c6.3-6.3 12.6-12.6 12.6-25.2v-56.7c0-18.9-12.6-31.5-31.5-31.5z m-837.9 63h806.4v12.6l-113.4 94.5c-6.3 6.3-12.6 12.6-12.6 25.2v289.8c0 132.3-94.5 245.7-226.8 270.9-12.6 0-25.2 12.6-25.2 31.5v18.9s0 6.3-6.3 6.3h-37.8s-6.3 0-6.3-6.3v-25.2c0-12.6-12.6-25.2-25.2-31.5-132.3-18.9-226.8-132.3-226.8-264.6v-289.8c0-12.6-6.3-18.9-12.6-25.2l-113.4-94.5v-12.6zM512-114.667c50.4 0 88.2 37.8 88.2 88.2H423.8c0-50.4 37.8-88.2 88.2-88.2z"  horiz-adv-x="1024" />

    
    <glyph glyph-name="home" unicode="&#58880;" d="M96 416c-9.6 0-19.2 3.2-25.6 12.8-12.8 12.8-9.6 35.2 3.2 44.8L451.2 784c35.2 25.6 86.4 25.6 118.4 0l377.6-307.2c12.8-9.6 16-32 3.2-44.8-12.8-12.8-32-16-44.8-3.2L531.2 729.6c-9.6 6.4-28.8 6.4-38.4 0L115.2 422.4c-6.4-6.4-12.8-6.4-19.2-6.4z m720-448H608c-19.2 0-32 12.8-32 32V150.4c0 22.4-38.4 44.8-67.2 44.8-28.8 0-64-19.2-64-44.8V0c0-19.2-12.8-32-32-32H211.2c-48 0-83.2 35.2-83.2 80V352c0 19.2 12.8 32 32 32s32-12.8 32-32v-304c0-9.6 6.4-16 19.2-16H384V150.4c0 64 67.2 108.8 128 108.8s131.2-44.8 131.2-108.8V32h176c9.6 0 16 0 16 19.2V352c0 19.2 12.8 32 32 32s32-12.8 32-32v-304c-3.2-48-35.2-80-83.2-80z"  horiz-adv-x="1024" />

    
    <glyph glyph-name="gengduo" unicode="&#58912;" d="M211.037 475.495c-50.535 0-91.504-40.951-91.504-91.504 0-50.535 40.969-91.486 91.504-91.486 50.534 0 91.503 40.951 91.503 91.486 0.001 50.552-40.969 91.504-91.503 91.504z m291.842 0c-50.534 0-91.503-40.951-91.503-91.504 0-50.535 40.969-91.486 91.503-91.486 50.535 0 91.503 40.951 91.503 91.486 0.001 50.552-40.968 91.504-91.503 91.504z m310.085 0c-50.534 0-91.505-40.951-91.505-91.504 0-50.535 40.971-91.486 91.505-91.486s91.503 40.951 91.503 91.486c0 50.552-40.969 91.504-91.503 91.504z"  horiz-adv-x="1024" />

    
    <glyph glyph-name="guanzhu" unicode="&#59190;" d="M774.144-106.974c-8.738 0-18.569 7.646-22.938 10.923l-0.546 0.546-89.020 106.496-0.546 0.546c-8.192 14.199-8.192 34.953 6.554 44.783 4.915 4.915 11.469 7.646 18.569 7.646 9.83 0 19.115-5.461 24.030-13.653l64.444-79.189 144.179 150.187c6.007 6.007 13.653 9.284 21.299 9.284s14.746-3.277 19.661-9.284c6.554-5.461 10.377-13.107 10.377-21.299 0.546-8.192-2.731-16.384-8.738-22.391l-166.025-173.124c-2.731-2.731-12.015-11.469-21.299-11.469zM100.215-19.593c-37.137 0-46.967 34.953-46.967 52.975v12.015c18.569 151.825 113.596 279.62 250.129 338.603-67.721 50.244-107.588 131.072-107.588 218.999 0 150.187 117.419 271.974 261.052 271.974s261.052-122.334 261.052-271.974c0-88.474-40.414-169.847-108.681-220.092 158.925-81.374 179.132-155.648 179.678-158.925v-2.185c0-14.746-11.469-31.13-30.037-31.13-8.192 0-19.661 3.277-26.761 17.476-48.606 67.721-117.419 115.234-193.877 133.803h-0.546c-1.092 0.546-27.307 8.738-27.307 34.953 0 24.576 22.391 33.314 26.761 34.953 72.090 32.222 120.149 109.773 120.149 192.785 0 115.78-90.112 209.715-200.977 209.715s-199.885-93.389-199.885-209.169c0-81.92 46.967-157.833 120.149-192.785 12.015-3.277 31.13-14.199 31.13-34.953 0-21.299-20.207-32.222-32.222-35.499h-0.546c-198.246-37.137-250.129-249.037-259.413-299.281h446.737c12.015 0 30.037-8.192 30.037-31.13s-18.022-31.13-30.037-31.13h-462.029z"  horiz-adv-x="1024" />

    
    <glyph glyph-name="sanjiaoxia" unicode="&#58883;" d="M201.311 368.67733336000003L512 57.988333359999956l310.689 310.689z"  horiz-adv-x="1024" />

    
    <glyph glyph-name="loupan" unicode="&#58899;" d="M242.302 624.318h120.534v-90.402H242.302v90.402z m180.803 0H543.64v-90.402H423.105v90.402z m-180.803-150.67h120.534v-90.401H242.302v90.401z m180.803 0H543.64v-90.401H423.105v90.401z m301.34 0h60.267v-90.401h-60.267v90.401z m0-150.67h60.267v-90.4h-60.267v90.4z m-482.143 0h120.534v-90.4H242.302v90.4z m180.803 0H543.64v-90.4H423.105v90.4zM905.248 51.773V594.184H664.177V774.987H121.766v-723.214H91.632v-60.268h843.75v60.268h-30.134z m-723.214 0V714.72h421.875v-662.947H182.034z m482.143 0V533.916H844.98v-482.143H664.177z"  horiz-adv-x="1026" />

    
    <glyph glyph-name="tuichu" unicode="&#59259;" d="M102.4 793.6h552.96V896H102.4C46.08 896 0 849.92 0 793.6v-819.2c0-56.32 46.08-102.4 102.4-102.4h552.96v102.4H102.4V793.6zM1008.64 409.6s-5.12 5.12-10.24 5.12l-209.92 209.92c-20.48 20.48-51.2 20.48-71.68 0s-20.48-51.2 0-71.68l133.12-133.12h-409.6c-25.6 0-51.2-25.6-51.2-51.2s25.6-51.2 51.2-51.2h404.48L716.8 194.56c-20.48-20.48-20.48-51.2 0-71.68 20.48-20.48 51.2-20.48 71.68 0l209.92 209.92c5.12 0 5.12 5.12 10.24 5.12 10.24 10.24 15.36 25.6 15.36 35.84 0 10.24-5.12 25.6-15.36 35.84z"  horiz-adv-x="1024" />

    
    <glyph glyph-name="weibo" unicode="&#58888;" d="M2.778359 896zM763.377135 393.466074q-15.744776 3.155041-20.445007 9.433743t-1.57752 11.548515l3.15504 5.237482q1.04027 1.04027 2.114772 3.155041t4.197212 8.929773 4.733512 13.630005 2.61779 16.785046-0.5363 18.900768-6.311983 19.404738-13.126986 18.900768q-14.703556 14.703556-38.305506 18.900768t-47.202949 0.5363-44.582307-9.433744-34.612263-11.012215l-13.630005-6.311983q-10.507294-3.155041-17.323247-4.197213t-10.507294 0.5363-5.774733 3.155041-1.57752 7.352253 1.040269 9.970044 2.61779 13.126986 3.155041 14.167256q0 12.588784-1.57752 23.600048t-6.815003 24.641269-15.208476 22.023478-25.17947 13.630005-39.346727 3.155041-54.554251-12.588784q-36.727034-12.588784-74.494339-37.231004t-65.564564-51.397309-50.89429-51.935511-35.686765-40.924246l-11.548515-16.785046q-34.612263-45.120508-51.397309-90.240066t-15.744776-68.185207v-22.023479q6.311984-50.357039 30.952302-90.240065t58.750513-64.524295 80.269071-41.964516 88.662545-25.179471 89.703765-11.012215q77.651281-6.311984 161.042112 12.052485t155.269281 63.484025T849.383855 202.604166q17.826266 36.727034 18.364468 69.258758t-11.012215 52.97578-29.912032 36.190734-34.612263 23.09703-28.83753 9.433743zM443.405781 67.183686q-113.303814-5.237482-192.500285 44.079288t-79.19457 124.852328q0 74.494338 78.691551 128.51229t193.036585 59.287764 193.036585-37.767304 78.69155-117.500075q0-75.53651-80.269071-135.864543t-191.459064-65.564565zM412.99073 357.813541q-30.415051-3.155041-54.554252-14.167256t-37.767304-25.17947-23.097029-30.415051-13.126986-31.993522-4.733512-28.837531-1.04027-20.445007l1.04027-8.393474v-4.197212q0-3.155041 2.114771-12.588784t5.774733-17.323248 12.052484-17.323247 19.941989-15.744777q69.258758-33.571993 129.04859-20.445007t96.517817 60.327083q14.703556 17.826266 19.404737 44.079287t-2.114771 52.975781-23.600048 48.779518-49.820739 34.109245-76.073761 6.815002z m-37.769206-198.308299q-6.311984-1.04027-12.052484-0.5363t-10.507294 2.114771-9.433744 3.65806-7.855272 5.774733-5.774733 7.352253-4.197212 8.393474-1.577521 9.970043q0 11.548515 6.311984 22.559779t17.323248 18.900768 24.641268 8.929774q9.433743 1.04027 18.364468-0.5363t15.208477-5.237482 11.012215-8.393474 6.815002-11.012215 2.114771-13.630005q0-11.548515-6.815002-22.023479t-18.364468-17.826266-25.179471-8.393474z m89.166515 75.53651q-7.352253-5.237482-15.208476-4.733513t-11.012215 6.815003l-2.114771 4.197212q-1.04027 2.114771-1.04027 4.197213v4.197212q0 3.155041 1.04027 5.237482l2.114771 4.197212q1.04027 2.114771 3.155041 3.155041l3.155041 4.197213q8.393474 6.311984 16.248746 5.237482t11.012214-8.393474q3.155041-4.197212 2.617791-9.433744t-3.155041-9.970043-6.815003-8.929774z m372.443165 219.289606q6.311984 0 11.548515 3.155041t8.393474 7.855272 4.197212 9.970043q1.04027 1.04027 1.04027 3.155041 12.588784 119.615797-83.929984 136.400843-28.334511 5.237482-52.471811 1.04027-7.352253 0-12.588784-3.65806t-8.929774-9.433743-3.658059-12.052485q0-10.507294 7.352253-17.826266t17.826266-7.352253q81.847542 18.900768 88.125294-52.471811 2.114771-17.826266-2.114771-33.571993 0-10.507294 7.352253-17.826267t17.826267-7.352253z m-17.826266 295.833104q-46.160778 10.507294-123.812059-4.197212-1.04027 0-2.114771-1.04027l-1.04027-2.114771-1.04027-1.040269q-11.548515-3.155041-18.900768-13.126986t-7.352253-21.518559q0-15.744776 10.507294-26.21974t25.179471-10.507294h3.155041q1.04027 0 4.733512 1.04027t7.855272 1.57752 8.929774 2.114771 8.393474 3.155041 14.167255 1.577521 25.715771-1.577521 33.571993-7.855272 36.727034-15.744776 36.727035-26.21974 31.993522-38.808525q27.294242-61.906505 10.507294-119.615797 0-1.04027-0.5363-2.114771t-1.57752-5.237482-2.114772-7.855272-2.114771-9.433744-1.04027-9.970043q0-9.433743 5.237482-15.744776t13.126987-8.929774 18.364468-2.61779q29.375732 0 34.612263 35.686765 12.588784 40.924247 14.167255 78.15525t-5.237482 65.564565-20.445007 52.97578-31.489552 41.964517-39.883026 31.489552-42.501768 22.559778-42.501767 13.630005z"  horiz-adv-x="1049" />

    
    <glyph glyph-name="yumaobi" unicode="&#58902;" d="M70.127236-77.153635S270.809762 632.822764 952.047717 896c0 0 11.343322-43.031637-30.411051-91.233153s-152.055255-152.055255-152.055255-152.055256-8.210984-43.670269 152.055255 30.411051c0 0-20.040883-154.913894-212.877358-182.466306 0 0-18.946085-19.219784 30.411052-30.411051 0 0 193.687984 44.734656 30.411051-91.233154 0 0-185.355356-95.004124-334.521562-121.644204-149.166206-26.640081-304.110511-364.932613-304.110511-364.932613s-56.71661-62.190599-60.822102 30.411051z"  horiz-adv-x="1024" />

    
    <glyph glyph-name="mima" unicode="&#58903;" d="M704 480H320V576c0 105.92 86.144 192 192 192 105.92 0 192-86.08 192-192v-96zM576 128c0-35.2-28.8-64-64-64s-64 28.8-64 64v128c0 35.2 28.8 64 64 64s64-28.8 64-64v-128z m256 352V576c0 176.448-143.552 320-320 320S192 752.448 192 576v-96a128 128 0 0 1-128-128V0a128 128 0 0 1 128-128h640a128 128 0 0 1 128 128V352a128 128 0 0 1-128 128z"  horiz-adv-x="1024" />

    
    <glyph glyph-name="sousuo" unicode="&#59191;" d="M1024.00114-67.477235L756.337082 200.186823a426.216653 426.216653 0 1 1-60.522764-60.522765L963.478376-128zM86.324504 468.703314a340.973322 340.973322 0 1 0 340.973322-340.973322 340.973322 340.973322 0 0 0-340.973322 340.973322z"  horiz-adv-x="1025" />

    
    <glyph glyph-name="xin1" unicode="&#59038;" d="M870.4 76.8H155.733333C117.333333 76.8 85.333333 106.666667 85.333333 145.066667V622.933333C85.333333 661.333333 117.333333 691.2 155.733333 691.2h714.666667c38.4 0 70.4-32 70.4-70.4v-475.733333c-2.133333-38.4-32-68.266667-70.4-68.266667z m-714.666667 554.666667c-6.4 0-10.666667-4.266667-10.666666-10.666667v-475.733333c0-6.4 4.266667-10.666667 10.666666-10.666667h714.666667c6.4 0 10.666667 4.266667 10.666667 10.666667V622.933333c0 6.4-4.266667 10.666667-10.666667 10.666667H155.733333zM512 277.333333c-14.933333 0-32 4.266667-44.8 14.933334L98.133333 578.133333c-12.8 10.666667-14.933333 27.733333-6.4 42.666667 10.666667 12.8 27.733333 14.933333 42.666667 6.4L505.6 341.333333c4.266667-4.266667 10.666667-4.266667 12.8 0l373.333333 285.866667c12.8 10.666667 32 8.533333 42.666667-6.4 10.666667-12.8 8.533333-32-6.4-42.666667L556.8 292.266667c-12.8-8.533333-27.733333-14.933333-44.8-14.933334z"  horiz-adv-x="1024" />

    
    <glyph glyph-name="shuaxin" unicode="&#58943;" d="M513.34 64.26C337.03 64.26 193.6 207.69 193.6 384c0 71.09 23.31 138.85 65.53 194.03v-51.61c0-17.67 14.33-32 32-32s32 14.33 32 32V656.55c0 5.87-1.59 11.36-4.34 16.09-0.06 0.1-0.11 0.2-0.17 0.3-0.16 0.28-0.34 0.55-0.51 0.82-0.13 0.2-0.26 0.41-0.39 0.61-0.08 0.13-0.17 0.25-0.26 0.37a35.5 35.5 0 0 1-1.58 2.13c-6.81 8.35-16.96 12.35-26.95 11.69h-130c-17.67 0-32-14.33-32-32s14.33-32 32-32h55.35C159.8 557 129.6 472.65 129.6 384c0-51.79 10.15-102.05 30.17-149.38 19.33-45.7 46.99-86.74 82.23-121.97 35.23-35.23 76.27-62.9 121.97-82.23 47.33-20.02 97.59-30.17 149.38-30.17 17.67 0 32 14.33 32 32s-14.34 32.01-32.01 32.01zM855.38 133.7h-51.23c19.81 23 36.93 48.3 50.75 75.22 27.6 53.74 42.18 114.28 42.18 175.08 0 51.79-10.15 102.05-30.17 149.38-19.33 45.7-46.99 86.73-82.23 121.97-35.23 35.23-76.27 62.9-121.97 82.23-47.33 20.02-97.59 30.17-149.38 30.17-17.67 0-32-14.33-32-32s14.33-32 32-32c176.31 0 319.74-143.44 319.74-319.74 0-78.31-27.68-151.61-77.6-209.05l0.24 56.04c0.08 17.67-14.19 32.06-31.86 32.14h-0.14c-17.61 0-31.92-14.24-32-31.86l-0.55-129.43a31.988 31.988 0 0 1 9.32-22.71 31.68 31.68 0 0 1 5.33-4.3c0.02-0.01 0.04-0.02 0.06-0.04 0.48-0.31 0.97-0.61 1.47-0.89l0.15-0.09c0.5-0.28 1-0.54 1.51-0.8 0.03-0.01 0.05-0.03 0.08-0.04 1.64-0.8 3.34-1.46 5.1-1.98 0.01 0 0.02-0.01 0.03-0.01 0.55-0.16 1.1-0.3 1.66-0.43 0.07-0.02 0.15-0.03 0.22-0.05 0.5-0.11 1-0.21 1.5-0.3 0.1-0.02 0.2-0.04 0.3-0.05 0.48-0.08 0.96-0.15 1.44-0.21 0.11-0.01 0.23-0.03 0.34-0.04 0.48-0.05 0.95-0.09 1.43-0.12l0.34-0.03c0.53-0.03 1.07-0.04 1.61-0.05h132.31c17.67 0 32 14.33 32 32s-14.31 31.99-31.98 31.99z"  horiz-adv-x="1024" />

    
    <glyph glyph-name="arrow-right-" unicode="&#58915;" d="M268.501333-12.501333a42.666667 42.666667 0 0 1 60.330667-60.330667l426.666667 426.666667a42.666667 42.666667 0 0 1 0 60.330666l-426.666667 426.666667a42.666667 42.666667 0 0 1-60.330667-60.330667L665.002667 384 268.501333-12.501333z"  horiz-adv-x="1024" />

    
    <glyph glyph-name="arrow-down-" unicode="&#58916;" d="M115.498667 627.498667a42.666667 42.666667 0 0 1-60.330667-60.330667l426.666667-426.666667a42.666667 42.666667 0 0 1 60.330666 0l426.666667 426.666667a42.666667 42.666667 0 0 1-60.330667 60.330667L512 230.997333 115.498667 627.498667z"  horiz-adv-x="1024" />

    
    <glyph glyph-name="arrow-left-" unicode="&#58917;" d="M755.498667 780.501333a42.666667 42.666667 0 0 1-60.330667 60.330667l-426.666667-426.666667a42.666667 42.666667 0 0 1 0-60.330666l426.666667-426.666667a42.666667 42.666667 0 0 1 60.330667 60.330667L358.997333 384 755.498667 780.501333z"  horiz-adv-x="1024" />

    
    <glyph glyph-name="arrow-up-" unicode="&#58918;" d="M908.501333 140.501333a42.666667 42.666667 0 0 1 60.330667 60.330667l-426.666667 426.666667a42.666667 42.666667 0 0 1-60.330666 0l-426.666667-426.666667a42.666667 42.666667 0 0 1 60.330667-60.330667L512 537.002667l396.501333-396.501334z"  horiz-adv-x="1024" />

    


  </font>
</defs>
</svg>
